<mxfile host="app.diagrams.net" modified="2024-03-24T11:56:39.847Z" agent="Mozilla/5.0 (Windows NT 10.0; Win64; x64) AppleWebKit/537.36 (KHTML, like Gecko) Chrome/122.0.0.0 Safari/537.36 Edg/122.0.0.0" version="24.1.0" etag="AnARFKwd6gfIC8OobO9S" type="github">
  <diagram name="第 1 页" id="2lAHLh3WhgVpcVMI1-X1">
    <mxGraphModel>
      <root>
        <mxCell id="0" />
        <mxCell id="1" parent="0" />
      </root>
    </mxGraphModel>
  </diagram>
</mxfile>
